<svg width="900" height="700" xmlns="http://www.w3.org/2000/svg">
<line x1="416.4" y1="296.0" x2="416.4" y2="123.2" stroke="#d4d4d8" stroke-width="3"  />
<line x1="416.4" y1="296.0" x2="752.7" y2="296.0" stroke="#d4d4d8" stroke-width="3"  />
<line x1="416.4" y1="296.0" x2="416.4" y2="512.0" stroke="#3b82f6" stroke-width="2.4" stroke-dasharray="6,4" />
<line x1="416.4" y1="296.0" x2="80.0" y2="296.0" stroke="#f97373" stroke-width="2.4"  />
<line x1="416.4" y1="123.2" x2="416.4" y2="296.0" stroke="#d4d4d8" stroke-width="3"  />
<line x1="416.4" y1="123.2" x2="80.0" y2="296.0" stroke="#3b82f6" stroke-width="2.4" stroke-dasharray="6,4" />
<line x1="416.4" y1="123.2" x2="752.7" y2="296.0" stroke="#d4d4d8" stroke-width="3"  />
<line x1="416.4" y1="512.0" x2="416.4" y2="296.0" stroke="#3b82f6" stroke-width="2.4" stroke-dasharray="6,4" />
<line x1="416.4" y1="512.0" x2="147.3" y2="555.2" stroke="#3b82f6" stroke-width="2.4" stroke-dasharray="6,4" />
<line x1="416.4" y1="512.0" x2="820.0" y2="598.4" stroke="#3b82f6" stroke-width="2.4" stroke-dasharray="6,4" />
<line x1="416.4" y1="512.0" x2="416.4" y2="620.0" stroke="#3b82f6" stroke-width="2.4" stroke-dasharray="6,4" />
<line x1="752.7" y1="296.0" x2="416.4" y2="296.0" stroke="#d4d4d8" stroke-width="3"  />
<line x1="752.7" y1="296.0" x2="416.4" y2="123.2" stroke="#d4d4d8" stroke-width="3"  />
<line x1="752.7" y1="296.0" x2="685.5" y2="80.0" stroke="#f97373" stroke-width="2.4"  />
<line x1="752.7" y1="296.0" x2="820.0" y2="598.4" stroke="#3b82f6" stroke-width="2.4" stroke-dasharray="6,4" />
<line x1="80.0" y1="296.0" x2="416.4" y2="296.0" stroke="#f97373" stroke-width="2.4"  />
<line x1="80.0" y1="296.0" x2="416.4" y2="123.2" stroke="#3b82f6" stroke-width="2.4" stroke-dasharray="6,4" />
<line x1="80.0" y1="296.0" x2="147.3" y2="555.2" stroke="#3b82f6" stroke-width="2.4" stroke-dasharray="6,4" />
<line x1="820.0" y1="598.4" x2="416.4" y2="512.0" stroke="#3b82f6" stroke-width="2.4" stroke-dasharray="6,4" />
<line x1="820.0" y1="598.4" x2="752.7" y2="296.0" stroke="#3b82f6" stroke-width="2.4" stroke-dasharray="6,4" />
<line x1="147.3" y1="555.2" x2="416.4" y2="512.0" stroke="#3b82f6" stroke-width="2.4" stroke-dasharray="6,4" />
<line x1="147.3" y1="555.2" x2="80.0" y2="296.0" stroke="#3b82f6" stroke-width="2.4" stroke-dasharray="6,4" />
<line x1="685.5" y1="80.0" x2="416.4" y2="123.2" stroke="#f97373" stroke-width="2.4"  />
<line x1="416.4" y1="620.0" x2="416.4" y2="512.0" stroke="#3b82f6" stroke-width="2.4" stroke-dasharray="6,4" />
<circle cx="416.4" cy="123.2" r="25" fill="rgba(15,23,42,0.02)" />
<circle cx="416.4" cy="123.2" r="21" fill="white" stroke="#374151" stroke-width="2"/>
<text x="416.4" y="128.2" font-size="11" text-anchor="middle" font-family="Segoe UI" fill="#111827">North</text>
<circle cx="685.5" cy="80.0" r="25" fill="rgba(15,23,42,0.02)" />
<circle cx="685.5" cy="80.0" r="21" fill="white" stroke="#374151" stroke-width="2"/>
<text x="685.5" y="85.0" font-size="11" text-anchor="middle" font-family="Segoe UI" fill="#111827">Stadium</text>
<circle cx="80.0" cy="296.0" r="25" fill="rgba(15,23,42,0.02)" />
<circle cx="80.0" cy="296.0" r="21" fill="white" stroke="#374151" stroke-width="2"/>
<text x="80.0" y="301.0" font-size="11" text-anchor="middle" font-family="Segoe UI" fill="#111827">West</text>
<circle cx="416.4" cy="296.0" r="25" fill="rgba(15,23,42,0.02)" />
<circle cx="416.4" cy="296.0" r="21" fill="white" stroke="#374151" stroke-width="2"/>
<text x="416.4" y="301.0" font-size="11" text-anchor="middle" font-family="Segoe UI" fill="#111827">Central</text>
<circle cx="752.7" cy="296.0" r="25" fill="rgba(15,23,42,0.02)" />
<circle cx="752.7" cy="296.0" r="21" fill="white" stroke="#374151" stroke-width="2"/>
<text x="752.7" y="301.0" font-size="11" text-anchor="middle" font-family="Segoe UI" fill="#111827">East</text>
<circle cx="147.3" cy="555.2" r="25" fill="rgba(15,23,42,0.02)" />
<circle cx="147.3" cy="555.2" r="21" fill="white" stroke="#374151" stroke-width="2"/>
<text x="147.3" y="560.2" font-size="11" text-anchor="middle" font-family="Segoe UI" fill="#111827">University</text>
<circle cx="820.0" cy="598.4" r="25" fill="rgba(15,23,42,0.02)" />
<circle cx="820.0" cy="598.4" r="21" fill="white" stroke="#374151" stroke-width="2"/>
<text x="820.0" y="603.4" font-size="11" text-anchor="middle" font-family="Segoe UI" fill="#111827">Airport</text>
<circle cx="416.4" cy="512.0" r="25" fill="rgba(15,23,42,0.02)" />
<circle cx="416.4" cy="512.0" r="21" fill="white" stroke="#374151" stroke-width="2"/>
<text x="416.4" y="517.0" font-size="11" text-anchor="middle" font-family="Segoe UI" fill="#111827">South</text>
<circle cx="416.4" cy="620.0" r="25" fill="rgba(15,23,42,0.02)" />
<circle cx="416.4" cy="620.0" r="21" fill="white" stroke="#374151" stroke-width="2"/>
<text x="416.4" y="625.0" font-size="11" text-anchor="middle" font-family="Segoe UI" fill="#111827">GasStation</text>
<circle cx="416.4" cy="296.0" r="11" fill="#22c55e" stroke="white" stroke-width="2"/>
<text x="416.4" y="300.0" font-size="10" text-anchor="middle" font-family="Segoe UI" fill="white">B</text>
<circle cx="820.0" cy="598.4" r="11" fill="#22c55e" stroke="white" stroke-width="2"/>
<text x="820.0" y="602.4" font-size="10" text-anchor="middle" font-family="Segoe UI" fill="white">B</text>
<circle cx="80.0" cy="296.0" r="11" fill="#22c55e" stroke="white" stroke-width="2"/>
<text x="80.0" y="300.0" font-size="10" text-anchor="middle" font-family="Segoe UI" fill="white">B</text>
<circle cx="778.7" cy="296.0" r="11" fill="#22c55e" stroke="white" stroke-width="2"/>
<text x="778.7" y="300.0" font-size="10" text-anchor="middle" font-family="Segoe UI" fill="white">T</text>
<circle cx="726.7" cy="296.0" r="11" fill="#22c55e" stroke="white" stroke-width="2"/>
<text x="726.7" y="300.0" font-size="10" text-anchor="middle" font-family="Segoe UI" fill="white">T</text>
</svg>